<?xml version="1.0" encoding="utf-8"?>
<!-- Generator: Adobe Illustrator 22.0.1, SVG Export Plug-In . SVG Version: 6.00 Build 0)  -->
<svg version="1.1" xmlns="http://www.w3.org/2000/svg" xmlns:xlink="http://www.w3.org/1999/xlink" x="0px" y="0px"
	 viewBox="0 0 1920 1080" style="enable-background:new 0 0 1920 1080;" xml:space="preserve">
<style type="text/css">
	.st0{display:none;}
	.st1{display:inline;fill-rule:evenodd;clip-rule:evenodd;fill:#225F93;}
	.st2{fill-rule:evenodd;clip-rule:evenodd;fill:#FFFFFF;}
</style>
<g id="Layer_2" class="st0">
	<rect y="-6.5" class="st1" width="1920" height="1093.4"/>
</g>
<g id="Layer_1">
	<g>
		<rect y="626" class="st2" width="1920" height="8.4"/>
		<rect y="661.6" class="st2" width="1920" height="8.4"/>
		<rect x="69.5" y="962.3" class="st2" width="1799" height="8.4"/>
		<rect x="121.5" y="1008" class="st2" width="1687.1" height="8.4"/>
		<path class="st2" d="M1397.7,587c2.7,1.5,6.1,0.6,7.6-2.1c21.1-37.2,82.5-73,128.7-75.1c8.9-0.4,18,0.5,27.1,2.4
			c-21.2,26.1-47.5,48.4-64,56.2c-3.5,1.6-5,5.8-3.3,9.3c1.2,2.5,3.7,4,6.3,4c1,0,2-0.2,3-0.7c17.5-8.3,48.9-34,73-65
			c24.4,7.5,49,20.7,73.2,33.6c15.4,8.2,29.9,16,44,22.1c23.1,10.1,65.7,22,105.4,22c27.4,0,53.5-5.7,71-21.7
			c22.8-21,32.2-45.6,27.3-71.2c-3.8-19.6-18.5-32.3-36.5-31.8c-9.6,0.3-18.8,5.1-24.8,12.6c-5.3,6.7-7.4,14.9-5.8,22.9
			c2.7,13.5,13.3,21.9,25.8,20.6c7.3-0.8,13.7-5.4,16.2-11.8c1.8-4.6,1.4-12-2.4-16.6c-2.5-3.1-6.3-4.4-10.2-3.6
			c-3,0.6-5,3.5-4.4,6.5c0.6,2.9,3.3,4.8,6.2,4.5c0.6,1.1,1,3.8,0.5,5.2c-1,2.5-3.9,4.5-7,4.8c-7.7,0.8-12.4-5.3-13.7-11.7
			c-1.2-6.1,1.3-10.9,3.6-13.8c3.9-5,10.3-8.2,16.5-8.4c14.2-0.5,22.9,11.1,25.1,22.7c5.3,27.3-10.1,48.2-23.9,60.9
			c-34.8,32-118.6,17.6-164.3-2.3c-13.7-6-28.1-13.6-43.2-21.8c-23.5-12.5-47.4-25.3-71.5-33.3c13.9-19.8,24.2-41.1,25.7-61
			c1.6-20.7-6.7-37.8-23.9-49.5c-16.7-11.4-39.3-14.4-58.9-8c-17.3,5.7-30,17.7-33.8,32.2c-4,15.1,0.8,33.7,17.7,40
			c11.1,4.1,22.7,3.2,30.4-2.3c6.5-4.7,9.9-12.3,9.6-21.5c-0.1-3.8-3.4-6.8-7.2-6.7c-3.8,0.1-6.9,3.4-6.7,7.2
			c0.2,4.6-1.1,7.8-3.8,9.8c-3.9,2.8-10.7,3-17.4,0.6c-9.1-3.4-11.5-14.3-9.1-23.3c3.1-11.7,14.8-19.3,24.7-22.6
			c15.3-5,33.7-2.6,46.7,6.3c13.2,9,19.1,21,17.8,36.8c-1.4,17.9-12,38.6-26.2,58c-11.7-2.8-23.4-4.3-35.1-3.8
			c-50.3,2.3-114.8,40.1-137.9,80.8C1394.1,582,1395,585.5,1397.7,587z"/>
		<path class="st2" d="M50.4,572c17.4,16,43.5,21.7,71,21.7c39.7,0,82.2-12,105.4-22c14.1-6.2,28.7-13.9,44-22.1
			c24.5-13.1,49.6-26.5,74.3-33.9c24.1,31.1,55.6,57,73.2,65.3c1,0.5,2,0.7,3,0.7c2.6,0,5.1-1.5,6.3-4c1.6-3.5,0.2-7.6-3.3-9.3
			c-16.6-7.8-43-30.2-64.2-56.4c8.7-1.7,17.4-2.5,26-2.1c46.2,2.1,107.6,37.9,128.7,75.1c1.5,2.7,4.9,3.6,7.6,2.1
			c2.7-1.5,3.6-4.9,2.1-7.6c-23.1-40.7-87.6-78.5-137.9-80.8c-11.3-0.5-22.7,0.9-34,3.5c-14.1-19.3-24.6-39.9-26-57.7
			c-1.2-15.8,4.6-27.9,17.8-36.8c13-8.8,31.4-11.3,46.7-6.3c9.9,3.3,21.6,10.9,24.7,22.6c2.4,9,0.1,20-9.1,23.3
			c-6.7,2.5-13.5,2.3-17.4-0.6c-2.7-1.9-3.9-5.1-3.8-9.8c0.1-3.8-2.9-7.1-6.7-7.2c-3.9-0.1-7.1,2.9-7.2,6.7
			c-0.3,9.2,3.1,16.9,9.6,21.5c7.7,5.5,19.3,6.4,30.4,2.3c16.9-6.3,21.7-24.9,17.7-40c-3.9-14.5-16.5-26.5-33.8-32.2
			c-19.6-6.4-42.1-3.4-58.9,8c-17.2,11.7-25.5,28.8-23.9,49.5c1.5,19.8,11.7,41,25.5,60.7c-24.4,7.9-48.7,20.9-72.5,33.6
			c-15.2,8.1-29.5,15.8-43.2,21.8c-45.7,19.9-129.5,34.4-164.3,2.3c-13.8-12.7-29.2-33.6-23.9-60.9c2.3-11.7,10.9-23.3,25.1-22.7
			c6.2,0.2,12.6,3.4,16.5,8.4c2.3,2.9,4.8,7.7,3.6,13.8c-1.3,6.4-6,12.5-13.7,11.7c-3.1-0.3-6-2.3-7-4.8c-0.5-1.3-0.2-4.1,0.5-5.2
			c2.9,0.4,5.6-1.5,6.2-4.5c0.6-3-1.4-6-4.4-6.5c-3.9-0.8-7.6,0.6-10.2,3.6c-3.8,4.6-4.2,12.1-2.4,16.6c2.5,6.4,8.9,11,16.2,11.8
			c12.5,1.3,23.1-7.1,25.8-20.6c1.6-8-0.5-16.2-5.8-22.9c-6-7.6-15.3-12.3-24.8-12.7c-18-0.6-32.7,12.1-36.5,31.8
			C18.2,526.4,27.6,551,50.4,572z"/>
		<path class="st2" d="M860.4,493.1c-6.2-3.8-14.9-5.9-23.3-6.3l-30.4-0.3v90.4l29.5,0.5c8.7-0.3,17.7-2.3,24.5-5.7
			c12.4-6.7,20.8-19.9,21.1-39.4C882.1,512.7,872.5,500.2,860.4,493.1z M857,558.8c-2.8,2.7-8.7,6.3-18.6,6.4l-18.6,0.3l0.3-67.1
			c24.8-1.9,47.7,4.1,47.7,33.8C867.6,543.7,862.9,553.1,857,558.8z"/>
		<polygon class="st2" points="1115.6,510.6 1150.4,577.3 1172.4,577.3 1172.4,486.5 1155,486.4 1154.7,553.4 1120.6,486.9 
			1098,486.4 1098,577 1115.6,577.3 		"/>
		<path class="st2" d="M1227.9,501.4c15.5-5,28.5,0.1,35.7,2.7l0.9-15.3c-18.9-3.6-37.8-7-54.9,2.7c-15.8,9.2-22,24.5-21.7,43.3
			c0.3,20.4,10.2,34,25.1,39.7c16.1,6.1,48.1,3.8,54.3-1.4v-47.9h-36.9v14.4l19.2,0.2v23.4c-15.5,1.8-23.9,1.9-33.2-7.2
			C1200.9,540.7,1205.3,508.6,1227.9,501.4z"/>
		<path class="st2" d="M994.7,536.1c0.3,0.2,0.3,0.2,0.6,0.5l3.4,4.1c1.6,1.9,2.8,3.6,4.1,5.3l20.1,25.9c1.9,2.2,2.2,2.9,4,5.2
			l24.5,0.2c-7.5-9.6-20.5-25.1-28.5-35.5c-1.8-2.2-3.1-3.6-4.9-5.9c-1.3-1.4-3.7-4.2-5-6c1.9-3.6,10.5-12.7,13.6-16.6l18.6-21.5
			c2.8-2.5,2.5-2.7,4.4-5.3c-15.5-0.1-22.1-0.7-22.7,0.4l-8.1,9.4c-3.1,3.6-5.3,6.1-8.1,9.4L995,524.4l-0.3-37.9l-18.3-0.1
			l-0.3,90.9l18.6,0V536.1z"/>
		<path class="st2" d="M1290.2,530.6c12.1,10.1,30.7,9.9,32.3,21c0.9,7.6-6.8,12-13.6,12.5c-9.6,0.8-15.2-2.6-22.6-5.2l-1.6,16.4
			c55.8,15.5,64.8-21.4,53.1-38.7c-7.8-11.2-27.6-12-33.5-19.8c-5.6-7,1.2-15,7.5-16.6c10.2-2.4,16.1,0.7,23.3,2.6l1.8-14
			c-12.7-6.4-35.7-4.6-44.3,2.8C1279.1,503,1281.2,523.1,1290.2,530.6z"/>
		<polygon class="st2" points="952.2,498.2 952.2,486.4 901.7,486.4 901.3,577.3 952.2,577.3 952.2,565.8 914.7,565.8 914.4,536.1 
			948.8,536.1 949.1,524.7 914.7,524.7 914.7,498.2 		"/>
		<polygon class="st2" points="580.3,577.3 593.7,577.3 593.7,498.4 621.9,498.2 621.6,486.4 552.4,486.4 552.2,498.2 580.3,498.3 
					"/>
		<polygon class="st2" points="1061.4,577.3 1080,577.3 1080,486.5 1061.7,486.4 		"/>
		<path class="st2" d="M703.8,577l13.9,0.3l9.3-22.8h43.7l9.3,22.8l14.3-0.1l-38.2-90.7l-14,0.1L703.8,577z M766.1,543.6h-34.7
			c0.9-4.6,6.2-16.8,8.3-22c2.8-6.8,5.9-15.7,9.3-21.9L766.1,543.6z"/>
		<path class="st2" d="M689.8,518.5c3.1-8.2,0.9-18.6-4-23.5c-5.6-5.6-11.5-7.5-21.7-8c-6.8-0.5-23.9-1.1-30.1-0.1v90l13,0.5v-39.9
			c17.7-1.8,18.9,0.8,24.5,13.3c4,8.2,9,18.5,11.8,26.6l14.9-0.1c-3.1-8-7.4-15.7-10.8-23.6c-5.9-13.1-5.9-14.6-13.6-21.4
			C678.4,530,686.4,528.3,689.8,518.5z M647,525.5l0.3-27.1c12.7-1,30.4-0.9,29.8,13.8C676.5,525.4,659.5,527.1,647,525.5z"/>
		<path class="st2" d="M960,343.7c90,0,163.2-73.2,163.2-163.2S1050,17.3,960,17.3c-90,0-163.2,73.2-163.2,163.2
			S870,343.7,960,343.7z"/>
		<path class="st2" d="M1123.6,404.5c9.6-12.8-1.6-30.2-17.2-26.9c6.9-1.5,13.3,5.2,13.7,11.7c0.4,6.9-5.2,13.7-11.7,15.4
			c-10.1,2.7-21.7-4.5-28.9-10.8c-11.7-10.4-20.7-24.8-26.8-39.1c-0.6-1.3-8.9-2.3-10.5-2.7c-4.2-0.9-8.3-1.7-12.6-2.3
			c-7.2-1-14.4-1.6-21.6-1.2c-9.1,0.5-19.2,2.4-26.4,8.6c-10.8,9.4-7.5,24.5,2.3,33.2c9,7.9,26.9,9.6,33.2-2.8
			c2-3.9,2.4-10.5,1.4-14.8c-0.5-2.3-1.7,2.5-1.8,2.9c-1.1,2.7-2.7,5.2-5,7c-6.4,4.9-20.9,3.8-24.6-4.4c-2.5-5.4-2-11.9,3.4-15.2
			c4.9-3,11.1-3.4,16.7-3.5c8.8-0.2,17.8,1.4,25.8,5.3c8,3.8,14,9.9,19.6,16.7c10.1,12.3,19.1,25.4,35.1,30.3
			C1099.1,415.5,1115.9,414.9,1123.6,404.5z"/>
		<path class="st2" d="M917.2,359.7c5.6,0.1,11.8,0.5,16.7,3.5c5.4,3.3,5.9,9.8,3.4,15.2c-3.8,8.2-18.2,9.3-24.6,4.4
			c-2.3-1.8-4-4.3-5-7c-0.2-0.4-1.3-5.3-1.8-2.9c-1,4.3-0.6,10.8,1.4,14.8c6.4,12.4,24.3,10.8,33.2,2.8c9.8-8.7,13.1-23.9,2.3-33.2
			c-7.1-6.2-17.2-8.1-26.4-8.6c-7.2-0.4-14.5,0.2-21.6,1.2c-4.2,0.6-8.4,1.4-12.6,2.3c-1.6,0.3-9.9,1.3-10.5,2.7
			c-6,14.4-15,28.8-26.8,39.1c-7.2,6.4-18.8,13.6-28.9,10.8c-6.5-1.8-12.2-8.5-11.7-15.4c0.4-6.6,6.8-13.2,13.7-11.7
			c-15.5-3.3-26.7,14.1-17.2,26.9c7.7,10.4,24.5,11,35.8,7.5c16-4.9,25-18,35.1-30.3c5.6-6.8,11.6-12.9,19.6-16.7
			C899.4,361.2,908.3,359.5,917.2,359.7z"/>
		<path class="st2" d="M1173.9,357c-11.2,2.3-22.9,2.3-34.2,2.1c-12.4-0.2-24.7-1-37-1.7c-7.1-0.4-15.3-1.9-22.4-0.4
			c-0.4,0.1-1.2,0.2-1.2,0.7c0,1,8.4,4.1,9.6,4.6c7.1,3.2,14.3,5.9,21.7,8.3c67,21.4,144.3,10.2,201.3-31.4
			c-21.9,6.3-43.7,12.5-65.6,18.7c16.4-4.4,31-15.2,39.9-29.6c-22.7,12.9-48.1,21.1-74.1,23.8c13.9-1.2,27-9.3,34.3-21.2
			c-2.7,4.4-8.4,7.1-12.9,9.1c-6.7,3.1-13.8,5.4-20.9,7.5C1199.7,351.4,1186.8,354.3,1173.9,357z"/>
		<path class="st2" d="M809.7,370.6c7.4-2.4,14.6-5.1,21.7-8.3c1.1-0.5,9.5-3.6,9.6-4.6c0-0.5-0.9-0.7-1.2-0.7
			c-7-1.4-15.3,0-22.4,0.4c-12.3,0.7-24.7,1.5-37,1.7c-11.3,0.2-23.1,0.2-34.2-2.1c-12.9-2.7-25.7-5.6-38.4-9.3
			c-7.1-2.1-14.1-4.4-20.9-7.5c-4.5-2.1-10.2-4.7-12.9-9.1c7.3,11.9,20.4,20,34.3,21.2c-26-2.8-51.4-11-74.1-23.8
			c8.9,14.4,23.5,25.3,39.9,29.6c-21.9-6.2-43.7-12.5-65.6-18.7C665.4,380.8,742.7,392.1,809.7,370.6z"/>
		<path class="st2" d="M975.5,428.6c6.1-6.2,14.7-12.4,23.8-12.4c-8.8,0-17.3-5.9-23.3-11.9c-6.2-6.1-12.4-14.7-12.4-23.8
			c0,8.8-5.9,17.3-11.9,23.3c-6.1,6.2-14.7,12.4-23.8,12.4c8.8,0,17.3,5.9,23.3,11.9c6.2,6.1,12.4,14.7,12.4,23.8
			C963.6,443.1,969.6,434.7,975.5,428.6z M947.6,416.2c6.3-4.2,11.8-9.7,16-16c4.2,6.3,9.7,11.8,16,16c-6.2,4.1-11.8,9.7-16,16
			C959.4,425.9,953.9,420.4,947.6,416.2z"/>
		<path class="st2" d="M1076.5,336.1C1092.4,317.8,1089.3,320.8,1076.5,336.1L1076.5,336.1z"/>
		<path class="st2" d="M1076.5,336.1c1.2-1.3,2.4-2.6,3.6-3.8C1078.8,333.4,1077.6,334.7,1076.5,336.1z"/>
		<path class="st2" d="M1124,291c10,8.6,25.4-11.1,19.4-13.9c0.6,3.5-2.2,6.7-5.4,7.9c-3.5,1.3-6.7,0.3-6.1-3.8
			c1-6.7,8.5-11.1,14.1-13.6c6.3-2.8,13.1-4.2,19.8-1.9c8.3,2.9,15.3,10.8,12.6,20c-2.6,8.9-11.7,13.8-20.2,15.5
			c-10.5,2.1-21.3,1.7-31.8,4.3c-17.5,4.4-33.8,13.7-46.4,26.7c34-32.7,97.2,1,126.7-40.1c5.8-8.1,9.3-18.7,6.6-28.6
			c-2.6-9.2-10.1-16.1-19-19c-18.9-6.4-42.3,1.6-57.1,14C1129.9,264.8,1112.6,281.2,1124,291z"/>
		<path class="st2" d="M839.9,332.2c-12.6-12.9-28.9-22.3-46.4-26.7c-10.5-2.6-21.3-2.2-31.8-4.3c-8.5-1.7-17.6-6.6-20.2-15.5
			c-2.7-9.2,4.3-17.1,12.6-20c6.7-2.3,13.4-0.9,19.8,1.9c5.6,2.5,13.2,6.8,14.1,13.6c0.6,4-2.6,5-6.1,3.8c-3.2-1.2-5.9-4.4-5.4-7.9
			c-6,2.9,9.4,22.5,19.4,13.9c11.4-9.8-5.9-26.2-13.2-32.4c-14.8-12.4-38.1-20.4-57.1-14c-8.9,3-16.4,9.8-19,19
			c-2.8,9.9,0.7,20.5,6.6,28.6C742.7,333.2,805.9,299.5,839.9,332.2z"/>
		<path class="st2" d="M843.5,336.1C830.7,320.8,827.6,317.8,843.5,336.1L843.5,336.1z"/>
		<path class="st2" d="M839.9,332.2c1.2,1.3,2.5,2.5,3.6,3.8C842.4,334.7,841.2,333.4,839.9,332.2z"/>
		<path class="st2" d="M125.7,915.5l71.6-0.3v-46.8c-0.1-0.7-0.5-1-1-1c-0.5,0-0.9,0.4-1,1.3c-1.6,10.7-9.3,19.4-23,26.1
			c-12.1,5.8-24.4,8.5-36.9,8c-13.3-0.7-24.7-8.7-34.3-24c-9.3-14.9-15.1-33.8-17.3-56.9c-1.1-10-1.6-19.4-1.6-28.1
			c0-41.6,10.5-63.4,31.5-65.4c3.6-0.3,7.1-0.5,10.3-0.5c26.5,0,50.6,14.4,72.4,43.1c1.5,0.7,2.4,0,2.6-2v-40.6
			c0-1.8-0.8-3.3-2.4-4.3c-22.1-8-42.6-12-61.7-12c-3.6,0-7.3,0.2-10.9,0.5c-23.9,1.5-42.4,10.3-55.5,26.3
			c-15.7,19.2-23.6,43.6-23.6,73.1c0,29.7,6.9,54.1,20.6,73.1C80,905.4,100.1,915.5,125.7,915.5z"/>
		<path class="st2" d="M268.1,740.7c2.3-13.7,7.3-21.5,15.1-23.3c0.7-0.2,1-0.6,1-1.3c0-0.7-0.3-1.1-0.8-1.3h-75.8
			c-0.5,0.2-0.8,0.6-0.8,1.3c0,0.7,0.3,1.1,1,1.3c11.4,2.7,18.7,9.4,21.8,20.3c1.5,5.2,2.2,16.3,2.2,33.3v88.2
			c0,14.4-0.5,24.5-1.6,30.3c-2.3,13.7-7.3,21.5-14.9,23.3c-0.7,0.2-1.1,0.6-1.2,1.3c0,0.7,0.3,1.1,1,1.3h133.3v-45.3
			c-0.1-0.8-0.5-1.2-1-1c-0.5,0-0.9,0.4-1,1.3c-2.2,14.2-7.6,23.2-16.3,27.1c-4.2,1.8-13.1,2.8-26.8,2.8h-31.1
			c-2.7-4.7-4.4-10.9-5-18.8c-0.3-3.5-0.4-10.9-0.4-22V771C266.7,756.6,267.1,746.5,268.1,740.7z"/>
		<path class="st2" d="M395.3,740.4c2.3-13.7,7.3-21.5,14.9-23.3c0.7-0.2,1.1-0.6,1.2-1.3c0-0.7-0.3-1-1-1h-75.8
			c-0.5,0-0.8,0.3-0.8,1c0,0.7,0.3,1.1,1,1.3c11.4,2.8,18.7,9.7,21.8,20.5c1.5,5.2,2.2,16.2,2.2,33.1v93.2
			c0,14.2,6.3,26.3,18.9,36.2c12.6,9.9,27.7,14.9,45.5,14.9c17.7,0,32.9-5,45.5-14.9c12.6-9.9,18.9-22,18.9-36.2v-93.2
			c0-14.4,0.5-24.5,1.6-30.3c2.3-13.7,7.3-21.5,15.1-23.3c0.7-0.2,1-0.6,1-1.3c0-0.7-0.3-1-0.8-1h-63.5c-0.5,0-0.8,0.3-0.8,1
			c0,0.7,0.3,1.1,1,1.3c11.6,2.8,18.8,9.7,21.8,20.5c1.5,5.2,2.2,16.2,2.2,33.1v93.4c0,9-3.6,16.8-10.7,23.3
			c-7.1,6.5-15.6,9.8-25.4,9.8c-9.7,0-18-3.2-24.9-9.6c-6.9-6.4-10.4-14.2-10.4-23.4v-93.4C393.7,756.4,394.3,746.3,395.3,740.4z"/>
		<path class="st2" d="M649.5,762.7c0.9-14.2-2.8-26.1-11.1-35.8c-9.4-10.9-22.9-16.3-40.5-16.3c-8.5,0-17.7,1.3-27.6,4h-57.3
			c-0.5,0.2-0.8,0.6-0.8,1.3c0,0.7,0.3,1.1,1,1.3c11.6,2.8,18.8,9.7,21.8,20.5c1.5,5.2,2.2,16.3,2.2,33.3v88.2
			c0,14.4-0.5,24.5-1.4,30.3c-2.3,13.7-7.3,21.5-15.1,23.3c-0.7,0.2-1.1,0.6-1.2,1.3c0,0.7,0.3,1.1,1,1.3h58.7
			c8.6,1.8,16.7,2.8,24.2,2.8c17.2,0,31.5-5,43-15c12.8-11.4,19.2-27.2,19.2-47.6c0-12.2-2.6-23.2-7.9-33.1
			c-5.8-10.5-13.9-18.2-24.4-23c0.3-0.2,0.5-0.4,0.6-0.8C643.3,788.7,648.5,776.7,649.5,762.7z M570.2,742.2
			c0-6.5,0.1-10.4,0.4-11.8c0.8-3,2.8-5,6.1-5.9c3.2-0.9,6.5-1.4,9.7-1.4c15.6,0,25.8,9.6,30.7,28.8c1.3,5.5,2,10.7,2,15.5
			c0,10.9-3.4,19.3-10.3,25.3c-6.3,5.5-14.8,8.4-25.4,8.8l-13.1,0.5V742.2z M618.6,897.2c-6.3,5.7-14.5,8.5-24.6,8.5
			c-6.3,0-11.8-1.1-16.4-3.3c-4.6-2.2-7-4.7-7-7.5l-0.2-77.1l15.1-0.3c9.8-0.3,17.7,1.1,23.6,4.3c4.7,2.5,9.2,6.8,13.5,13
			c6.1,8.7,9.1,18.6,9.1,29.8C631.7,878.7,627.3,889.5,618.6,897.2z"/>
		<path class="st2" d="M818.5,710.6c-8.5,0-17.7,1.3-27.6,4h-59.3c-0.5,0.2-0.8,0.6-0.8,1.3c0,0.7,0.3,1.1,1,1.3
			c11.6,2.7,18.8,9.5,21.8,20.5c1.5,5.2,2.2,16.3,2.2,33.3v88.4c0,14.5-0.5,24.7-1.4,30.6c-2.3,13.7-7.3,21.5-15.1,23.3
			c-0.7,0.2-1,0.6-1,1.3c-0.1,0.7,0.1,1.1,0.8,1.3h76c0.5-0.2,0.8-0.6,0.8-1.3c0-0.7-0.3-1.1-1-1.3c-11.6-2.8-18.8-9.7-21.8-20.5
			c-1.5-5.2-2.2-16.3-2.2-33.3v-20.5c5.1,1.7,10.2,2.5,15.3,2.5c19.4,0,36.4-9.4,51.2-28.3c9.8-12.4,15.1-26.6,15.9-42.8
			c0.9-16.5-3-30.3-11.9-41.3C851.5,716.7,837.1,710.6,818.5,710.6z M831.5,813.9c-7.2,8.6-15.9,12.9-26.1,12.9
			c-5,0-9.8-1.1-14.5-3.3v-80.2c0-6.7,0.2-10.8,0.6-12.3c0.7-3,2.6-5,5.8-6c3.2-1,6.4-1.5,9.5-1.5c16.9,0,28,11.6,33.1,34.8
			c1.6,7.2,2.4,14,2.4,20.5C842.3,793.7,838.7,805.3,831.5,813.9z"/>
		<path class="st2" d="M1009.7,761c0-14-4.4-25.6-13.1-34.8c-9.8-10.4-23.4-15.5-40.7-15.5c-9,0-18.7,1.4-29,4.3h-59.1
			c-0.5,0-0.8,0.4-0.8,1.3c0,0.7,0.3,1.1,1,1.3c11.6,2.7,18.8,9.4,21.8,20.3c1.5,5.4,2.2,16.5,2.2,33.4l-0.4,88.3
			c-0.1,14.7-0.7,24.9-1.6,30.6c-2.3,13.7-7.3,21.5-14.9,23.3c-0.7,0.2-1.1,0.6-1.2,1.3c0,0.7,0.3,1,1,1h75.8c0.5,0,0.8-0.3,0.8-1
			s-0.3-1.1-1-1.3c-11.6-2.8-18.9-9.7-22-20.6c-1.5-5.5-2.2-16.7-2-33.4l0.4-33.7c11.7,0.7,20,0.7,25,0l36.3,63.1
			c6.2,10.9,12.6,18.3,19.2,22.3c5,3,11.5,4.5,19.6,4.5h27.6c0.3-0.1,0.5-0.3,0.7-0.5h137.7v-45.3c0-0.7-0.3-1-1-1
			c-0.5,0-0.9,0.4-1,1.3c-2.3,14.2-7.9,23.2-16.9,27.1c-4.3,1.8-13.6,2.8-27.8,2.8h-32.3c-2.7-4.7-4.4-10.9-5-18.8
			c-0.3-3.5-0.4-10.8-0.4-21.8v-40.8h19c16.1,0.2,27.6,4.1,34.3,11.8l1.2,1.5c0.5,0,0.8-0.4,0.8-1.3V791c0-0.8-0.3-1.3-0.8-1.3
			l-1.2,1.5c-6.7,7.7-18.2,11.6-34.3,11.8l-19,0.3v-32.1c0-19.4,1.4-32.8,4.2-40.3h26.8c12,0,20.4,0.6,25.2,1.8
			c11.4,2.8,17.9,9.1,19.6,18.8c0.1,0.8,0.5,1.3,1,1.3c0.5,0,0.9-0.3,1-1v-36.3H1047c-0.5,0-0.8,0.3-0.8,1c0,0.7,0.3,1.1,1,1.3
			c12,2.8,19.5,9.6,22.6,20.3c1.5,5.2,2.2,16.3,2.2,33.3v87.9c0,14.4-0.5,24.4-1.4,30.1c-2.4,13.7-7.7,21.5-15.7,23.3
			c-0.2,0-0.3,0.2-0.4,0.2c-6.7-1.7-12.4-5.1-17.1-10.3c-2.6-2.7-6-7.7-10.3-15l-45.2-75.4c2.6-2,6.4-5.2,11.5-9.5
			C1004.2,791,1009.7,777.2,1009.7,761z M966.9,803.8c-7,7.4-15.5,11-25.6,11c-5,0-9.8-0.9-14.5-2.8l0.2-74.1
			c3.4-8.9,9.5-13.5,18.6-14c15.3,1,25.4,11,30.3,30.1c1.6,6.3,2.4,12.4,2.4,18.3C978.2,785.3,974.4,795.8,966.9,803.8z"/>
		<path class="st2" d="M1417.3,740.4c2.3-13.5,7.3-21.2,14.9-23c0.7-0.2,1.1-0.6,1.2-1.3c0-0.8-0.3-1.3-1-1.3h-53.4l-53.2,134
			l-56.3-134h-62.7c-0.5,0-0.8,0.3-0.8,1c0,0.8,0.3,1.3,1,1.5c11.4,2.7,18.7,9.4,21.8,20.3c1.3,5,2,16.1,2,33.1v88.3
			c0,14.4-0.5,24.5-1.4,30.3c-2.3,13.7-7.3,21.5-14.9,23.3c-0.8,0.2-1.2,0.6-1.2,1.3s0.3,1.1,1,1.3h63.3c0.7-0.2,0.9-0.6,0.8-1.3
			c0-0.7-0.3-1.1-1-1.3c-11.4-2.7-18.6-9.4-21.6-20.3c-1.5-5-2.2-16.1-2.2-33.3V761l65.3,153.5c0.1,0.2,0.3,0.1,0.6-0.3l61.1-153.3
			c0.1,6.9,0.1,39.5,0,98c0,14.4-0.5,24.5-1.4,30.4c-2.3,13.7-7.3,21.5-15.1,23.4c-0.7,0.2-1,0.6-1,1.3c0,0.7,0.3,1.1,0.8,1.3h76
			c0.5-0.2,0.8-0.6,0.8-1.3c0-0.7-0.3-1.1-1-1.3c-11.4-2.7-18.7-9.4-21.8-20.3c-1.5-5.2-2.2-16.3-2.2-33.3v-88.4
			C1415.6,756.4,1416.2,746.3,1417.3,740.4z"/>
		<path class="st2" d="M1511,740.9c2.3-13.7,7.3-21.5,15.1-23.3c0.7-0.2,1-0.6,1-1.3c0-0.7-0.3-1.1-0.8-1.3h-76.2
			c-0.5,0.2-0.8,0.6-0.8,1.3c0,0.7,0.3,1.1,1,1.3c11.4,2.7,18.7,9.4,21.8,20.3c1.5,5.2,2.2,16.3,2.2,33.3v88.2
			c0,14.4-0.5,24.5-1.4,30.3c-2.4,13.7-7.5,21.5-15.1,23.3c-0.7,0.2-1.1,0.6-1.2,1.3c0,0.7,0.3,1.1,1,1.3h76
			c0.7-0.2,0.9-0.6,0.8-1.3c0-0.7-0.3-1.1-1-1.3c-11.4-2.7-18.7-9.4-21.8-20.3c-1.5-5.2-2.2-16.3-2.2-33.3v-88.2
			C1509.4,756.9,1510,746.8,1511,740.9z"/>
		<path class="st2" d="M1602.8,730.9h26.8c12,0,20.4,0.6,25.2,1.8c11.4,2.8,17.9,9.1,19.6,18.8c0.1,0.8,0.5,1.3,1,1.3
			c0.5,0,0.9-0.3,1-1v-36.3h-139.2c-0.5,0-0.8,0.3-0.8,1c0,0.7,0.3,1.1,1,1.3c12,2.8,19.5,9.6,22.6,20.3c1.5,5.2,2.2,16.3,2.2,33.3
			v87.9c0,14.4-0.5,24.4-1.4,30.1c-2.4,13.7-7.7,21.5-15.7,23.3c-0.7,0.2-1,0.6-1,1.3c-0.1,0.7,0.1,1.1,0.8,1.3h138.2v-45.3
			c0-0.7-0.3-1-1-1c-0.5,0-0.9,0.4-1,1.3c-2.3,14.2-7.9,23.2-16.9,27.1c-4.3,1.8-13.6,2.8-27.8,2.8H1604c-2.7-4.7-4.4-10.9-5-18.8
			c-0.3-3.5-0.4-10.8-0.4-21.8v-40.8h19c16.1,0.2,27.6,4.1,34.3,11.8l1.2,1.5c0.5,0,0.8-0.4,0.8-1.3V791c0-0.8-0.3-1.3-0.8-1.3
			l-1.2,1.5c-6.7,7.7-18.2,11.6-34.3,11.8l-19,0.3v-32.1C1598.6,751.9,1600,738.4,1602.8,730.9z"/>
		<path class="st2" d="M1877.5,912.8c-6.7-1.7-12.4-5.1-17.1-10.3c-2.6-2.7-6-7.7-10.3-15l-45.2-75.4c2.6-2,6.4-5.2,11.5-9.5
			c10.9-11.5,16.3-25.4,16.3-41.6c0-14-4.4-25.6-13.1-34.8c-9.8-10.4-23.4-15.5-40.7-15.5c-9,0-18.7,1.4-29,4.3h-59.1
			c-0.5,0-0.8,0.4-0.8,1.3c0,0.7,0.3,1.1,1,1.3c11.6,2.7,18.8,9.4,21.8,20.3c1.5,5.4,2.2,16.5,2.2,33.4l-0.4,88.3
			c-0.1,14.7-0.7,24.9-1.6,30.6c-2.3,13.7-7.3,21.5-14.9,23.3c-0.7,0.2-1.1,0.6-1.2,1.3c0,0.7,0.3,1,1,1h75.8c0.5,0,0.8-0.3,0.8-1
			s-0.3-1.1-1-1.3c-11.6-2.8-18.9-9.7-22-20.6c-1.5-5.5-2.2-16.7-2-33.4l0.4-33.7c11.7,0.7,20,0.7,25,0l36.3,63.1
			c6.2,10.9,12.6,18.3,19.2,22.3c5,3,11.5,4.5,19.6,4.5h27.6c0.5-0.2,0.9-0.6,1-1.3C1878.5,913.4,1878.2,912.9,1877.5,912.8z
			 M1790,803.8c-7,7.4-15.5,11-25.6,11c-5,0-9.8-0.9-14.5-2.8l0.2-74.1c3.4-8.9,9.5-13.5,18.6-14c15.3,1,25.4,11,30.3,30.1
			c1.6,6.3,2.4,12.4,2.4,18.3C1801.3,785.3,1797.5,795.8,1790,803.8z"/>
	</g>
</g>
</svg>
