<?xml version="1.0"?>
<svg xmlns="http://www.w3.org/2000/svg" height="512px" viewBox="-22 0 511 512" width="512px" class=""><g><g fill-rule="evenodd"><path d="m468.261719 113.675781c-.003907-.109375-.011719-.214843-.019531-.328125-.027344-.429687-.074219-.859375-.15625-1.277344v-.003906c-.085938-.425781-.207032-.839844-.347657-1.246094-.03125-.105468-.070312-.207031-.109375-.308593-.144531-.382813-.304687-.761719-.496094-1.128907-.011718-.019531-.019531-.042968-.027343-.0625-.203125-.382812-.441407-.746093-.691407-1.101562-.066406-.085938-.128906-.175781-.195312-.261719-.269531-.351562-.554688-.695312-.871094-1.011719l-104.015625-104.015624c-.316406-.316407-.65625-.597657-1.007812-.867188-.089844-.070312-.179688-.136719-.269531-.199219-.355469-.253906-.714844-.488281-1.09375-.6875-.023438-.015625-.050782-.023437-.078126-.039062-.359374-.1875-.734374-.347657-1.113281-.488281-.101562-.039063-.207031-.078126-.3125-.113282-.40625-.136718-.820312-.257812-1.242187-.34375-.007813 0-.011719 0-.019532 0-.414062-.082031-.835937-.128906-1.261718-.160156-.113282-.0039062-.222656-.0117188-.335938-.015625-.113281-.0039062-.222656-.015625-.339844-.015625h-260.425781c-5.523437 0-10 4.476562-10 10v363.085938c-5.15625 2.105468-9.886719 5.230468-13.933593 9.28125l-56.941407 56.9375c-16.609375 16.613281-16.609375 43.644531.003907 60.253906 8.019531 8.023437 18.71875 12.441406 30.125 12.441406s22.105468-4.417969 30.128906-12.441406l10.617187-10.617188v13.058594c0 5.523438 4.476563 10 10 10h364.445313c5.523437 0 10-4.476562 10-10v-387.980469c0-.117187-.011719-.230469-.015625-.34375zm-104.003907-79.53125 69.878907 69.875h-69.878907zm-305.1875 451.273438c-4.242187 4.246093-9.921874 6.582031-15.984374 6.582031s-11.742188-2.335938-15.984376-6.582031c-8.8125-8.816407-8.816406-23.15625 0-31.972657l56.9375-56.9375c4.242188-4.246093 9.921876-6.582031 15.984376-6.582031 6.066406 0 11.742187 2.335938 15.988281 6.582031 4.242187 4.246094 6.582031 9.921876 6.582031 15.984376 0 6.066406-2.339844 11.742187-6.585938 15.988281l-29.238281 29.238281c-.003906.007812-.011719.011719-.015625.015625zm44.761719 6.582031v-23.058594l26.320313-26.320312c8.023437-8.019532 12.441406-18.71875 12.441406-30.128906 0-7.976563-2.167969-15.601563-6.210938-22.214844l30.292969-30.296875c21.59375 18.316406 48.6875 28.304687 77.320313 28.304687 31.988281 0 62.0625-12.457031 84.683594-35.078125 22.621093-22.621093 35.078124-52.695312 35.078124-84.6875 0-31.988281-12.457031-62.0625-35.078124-84.683593-46.695313-46.691407-122.671876-46.695313-169.367188 0-11.988281 11.988281-21.121094 26.039062-27.148438 41.769531-1.976562 5.15625.601563 10.9375 5.761719 12.914062 5.15625 1.976563 10.9375-.601562 12.914063-5.757812 5.015625-13.089844 12.625-24.792969 22.613281-34.785157 38.898437-38.894531 102.1875-38.894531 141.085937 0 18.839844 18.84375 29.21875 43.894532 29.21875 70.542969 0 26.648438-10.378906 51.699219-29.21875 70.542969-18.84375 18.84375-43.898437 29.21875-70.542968 29.21875-26.648438 0-51.699219-10.375-70.542969-29.21875-9.992187-9.992188-17.597656-21.691406-22.613281-34.78125-1.976563-5.15625-7.757813-7.734375-12.914063-5.761719-5.160156 1.976563-7.738281 7.757813-5.761719 12.917969 4.832032 12.613281 11.667969 24.144531 20.367188 34.40625l-30.292969 30.292969c-5.550781-3.394531-11.816406-5.460938-18.40625-6.039063v-350.097656h240.425781v94.019531c0 5.523438 4.480469 10 10 10h94.019532v367.980469zm0 0" data-original="#000000" class="active-path" data-old_color="##225F9" fill="#225F93"/><path d="m280.339844 319.007812c1.953125 1.953126 4.511718 2.929688 7.074218 2.929688 2.558594 0 5.117188-.976562 7.070313-2.929688 13.484375-13.484374 20.910156-31.414062 20.910156-50.484374 0-19.074219-7.425781-37.003907-20.910156-50.488282-3.90625-3.90625-10.238281-3.90625-14.144531 0s-3.90625 10.238282 0 14.140625c9.710937 9.710938 15.054687 22.617188 15.054687 36.347657 0 13.730468-5.34375 26.636718-15.054687 36.34375-3.90625 3.90625-3.90625 10.234374 0 14.140624zm0 0" data-original="#000000" class="active-path" data-old_color="##225F9" fill="#225F93"/><path d="m124.234375 268.523438c0 5.507812 4.492187 10 10 10s10-4.492188 10-10c0-5.511719-4.492187-10-10-10s-10 4.492187-10 10zm0 0" data-original="#000000" class="active-path" data-old_color="##225F9" fill="#225F93"/></g></g> </svg>
