<svg height="512pt" viewBox="-31 0 512 512.001" width="512pt" xmlns="http://www.w3.org/2000/svg" fill="#fff"><path d="m449.761719 0h-261.074219l-98.734375 98.734375v114.230469c-50.789063 7.296875-89.953125 51.089844-89.953125 103.867187 0 28.527344 11.449219 54.429688 29.984375 73.367188v121.800781l74.960937-37.480469 74.960938 37.480469v-60.238281h269.855469zm-269.855469 51.1875v38.765625h-38.765625zm-74.960938 190.683594c41.332032 0 74.960938 33.628906 74.960938 74.960937s-33.628906 74.960938-74.960938 74.960938c-41.332031 0-74.960937-33.628907-74.960937-74.960938s33.628906-74.960937 74.960937-74.960937zm0 199.125-44.976562 22.488281v-51.847656c13.640625 6.496093 28.890625 10.140625 44.976562 10.140625 16.085938 0 31.335938-3.644532 44.976563-10.140625v51.847656zm314.832032-19.21875h-239.871094v-31.578125c18.535156-18.9375 29.984375-44.839844 29.984375-73.367188 0-52.777343-39.164063-96.570312-89.953125-103.867187v-93.027344h89.953125v-89.953125h209.886719zm0 0"/><path d="m314.832031 211.886719c-7.703125 0-14.992187-8.257813-14.992187-16.988281h-29.980469c0 20 12.710937 37.558593 29.980469 44.171874v32.785157h29.984375v-32.785157c17.273437-6.613281 29.984375-24.171874 29.984375-44.171874 0-24.800782-20.175782-44.976563-44.976563-44.976563-8.265625 0-14.992187-6.726563-14.992187-14.992187 0-8.269532 6.726562-14.992188 14.992187-14.992188 8.269531 0 14.992188 6.722656 14.992188 14.992188h29.984375c0-19.546876-12.53125-36.210938-29.984375-42.398438v-32.5625h-29.984375v32.5625c-17.449219 6.1875-29.980469 22.851562-29.980469 42.398438 0 24.796874 20.175781 44.976562 44.972656 44.976562 8.269531 0 14.992188 6.722656 14.992188 14.992188 0 8.730468-7.285157 16.988281-14.992188 16.988281zm0 0"/><path d="m239.875 361.808594h149.917969v29.984375h-149.917969zm0 0"/><path d="m239.875 301.839844h149.917969v29.984375h-149.917969zm0 0"/><path d="m104.945312 361.808594c24.800782 0 44.976563-20.175782 44.976563-44.976563s-20.175781-44.976562-44.976563-44.976562c-24.800781 0-44.976562 20.175781-44.976562 44.976562s20.175781 44.976563 44.976562 44.976563zm0-59.96875c8.265626 0 14.992188 6.726562 14.992188 14.992187s-6.726562 14.992188-14.992188 14.992188c-8.265624 0-14.992187-6.726563-14.992187-14.992188s6.726563-14.992187 14.992187-14.992187zm0 0"/></svg>